<svg viewBox="0 0 15 14" fill="none" xmlns="http://www.w3.org/2000/svg">
<path fill-rule="evenodd" clip-rule="evenodd" d="M5.75789 1.51614C6.49456 0.261383 8.38014 0.261383 9.11681 1.51614L14.4932 10.6737C15.2157 11.9044 14.2875 13.425 12.8137 13.425H2.06095C0.587191 13.425 -0.341033 11.9044 0.381494 10.6737L5.75789 1.51614ZM8.40073 10.6558C8.40073 11.1656 7.96937 11.5789 7.43727 11.5789C6.90516 11.5789 6.47381 11.1656 6.47381 10.6558C6.47381 10.146 6.90516 9.73274 7.43727 9.73274C7.96937 9.73274 8.40073 10.146 8.40073 10.6558ZM7.43727 3.2711C6.90516 3.2711 6.47381 3.68438 6.47381 4.19419V6.96347C6.47381 7.47328 6.90516 7.88656 7.43727 7.88656C7.96937 7.88656 8.40073 7.47328 8.40073 6.96347V4.19419C8.40073 3.68438 7.96937 3.2711 7.43727 3.2711Z" fill="#D51900"/>
</svg>
