<svg viewBox="0 0 26 26" fill="none" xmlns="http://www.w3.org/2000/svg">
<path fill-rule="evenodd" clip-rule="evenodd" d="M13 26C20.1797 26 26 20.1797 26 13C26 5.8203 20.1797 0 13 0C5.8203 0 0 5.8203 0 13C0 20.1797 5.8203 26 13 26ZM19.024 10.899C19.6587 10.2644 19.6587 9.23555 19.024 8.60095C18.3894 7.96635 17.3606 7.96635 16.726 8.60095L11.375 13.9519L9.27405 11.851C8.63945 11.2163 7.61055 11.2163 6.97595 11.851C6.34135 12.4856 6.34135 13.5144 6.97595 14.149L10.226 17.399C10.8606 18.0337 11.8894 18.0337 12.524 17.399L19.024 10.899Z" fill="#155724"/>
</svg>
